<svg width="100%" height="100%" viewBox="0 0 2357 1436" version="1.1" xmlns="http://www.w3.org/2000/svg" xmlns:xlink="http://www.w3.org/1999/xlink">
<title>background_curves</title>
<desc>Created using Figma</desc>
<g id="Canvas" transform="translate(-1357 -353)">
<g id="background_curves">
<g id="Fill 1">
<use xlink:href="#path0_fill" transform="translate(1796 772.381)" fill="#00AEEF"/>
</g>
<g id="Group 5">
<mask id="mask0_outline" mask-type="alpha">
<g id="Clip 4">
<use xlink:href="#path1_fill" transform="translate(1357 353)" fill="#FFFFFF"/>
</g>
</mask>
<g id="Fill 3" mask="url(#mask0_outline)">
<use xlink:href="#path2_fill" transform="translate(1356.99 353)"/>
</g>
</g>
<g id="Fill 6">
<use xlink:href="#path3_fill" transform="translate(1552 797.381)" fill="#FFF200"/>
</g>
<g id="Fill 8">
<use xlink:href="#path4_fill" transform="translate(1392 797.381)" fill="#EC008C"/>
</g>
</g>
</g>
<defs>
<path id="path0_fill" fill-rule="evenodd" d="M 1880.62 450.758C 1675.21 91.6345 1395.67 7.70379 1197.32 0.521509C 1027.83 -5.6109 849.969 42.4378 683.011 139.487C 518.196 235.28 391.365 374.187 279.043 541.184C 182.844 684.212 88.9939 843.969 0 1016L 73.462 1016C 157.895 854.683 246.505 704.591 337.2 569.727C 556.74 243.326 872.215 39.9063 1195.47 51.6805C 1461.24 61.2962 1682.75 208.072 1836.09 476.132C 1843.1 488.406 1858.77 492.675 1871.06 485.679C 1883.36 478.663 1887.65 463.033 1880.62 450.758"/>
<path id="path1_fill" fill-rule="evenodd" d="M 0 0L 2310.14 0L 2310.14 1431.38L 0 1431.38L 0 0Z"/>
<path id="path2_fill" fill-rule="evenodd" d="M 2308.33 848.393C 2300.91 829.807 2292.71 808.827 2283.79 785.935C 2184.23 530.94 1998.93 56.3012 1766.76 4.72954C 1695.87 -11.0126 1626.66 12.5859 1561.11 74.8877C 1508.37 124.988 1478.56 187.241 1449.71 247.434C 1414.83 320.24 1381.87 389.016 1311.34 431.819C 1254.95 466.04 1184.82 469.315 1110.56 472.788C 1045.89 475.799 979.008 478.928 918.244 503.595C 643.736 615.017 411.624 861.948 228.366 1123.38C 156.381 1226.06 81.9471 1332.2 0 1431.38L 81.6127 1431.38C 154.434 1340.31 221.217 1245.13 286.003 1152.7C 464.806 897.64 677.103 656.721 937.578 550.989C 990.209 529.626 1049.82 526.85 1112.96 523.898C 1190.37 520.279 1270.43 516.552 1338.01 475.534C 1421.59 424.816 1459.42 345.859 1495.99 269.502C 1524.08 210.898 1550.6 155.551 1596.49 111.933C 1649.64 61.4309 1701.68 42.7266 1755.61 54.6828C 1961.06 100.311 2146.73 575.941 2235.98 804.502C 2244.95 827.521 2253.21 848.619 2260.64 867.313C 2265.89 880.447 2280.81 886.851 2293.97 881.624C 2307.14 876.396 2313.56 861.517 2308.33 848.393"/>
<path id="path3_fill" fill-rule="evenodd" d="M 1068.78 8.0775C 1057.09 12.6708 1051.51 14.9674 1043.05 16.8126C 1012.68 23.4571 986.65 26.4114 982.675 26.8628C 982.675 26.8628 958.61 29.4637 933.925 30.4354C 932.971 30.4746 927.569 30.6807 920.23 31.0439C 917.022 31.1911 912.044 31.4365 906.623 31.7702C 892.898 32.6142 893.489 32.9676 885.273 33.3503C 883.316 33.4387 882.637 33.4485 865.222 33.7037C 865.144 33.7037 852.826 33.8902 852.767 33.8902C 823.025 36.2751 808.169 37.4627 788.118 41.2512C 766.66 45.2948 739.486 52.067 709.035 63.9133C 662.184 81.9626 618.678 107.432 577.641 138.937C 575.89 140.282 574.198 141.783 572.466 143.147C 565.737 148.428 559.056 153.816 552.465 159.41C 549.907 161.589 547.348 163.817 544.8 166.045C 538.061 171.924 531.38 177.95 524.769 184.143C 523.726 185.135 522.624 186.038 521.581 187.029C 344.645 354.86 175.008 633.765 50.7965 887.72C 33.6971 922.69 16.7944 957.188 0 991L 72.825 991C 85.9693 964.363 99.1727 937.461 112.524 910.176C 247.44 634.324 420.805 336.507 614.861 185.252C 620.055 181.199 625.28 177.253 630.543 173.416C 631.783 172.523 633.013 171.63 634.252 170.746C 639.054 167.311 643.904 164.004 648.774 160.745C 651.352 159.028 653.939 157.33 656.547 155.661C 659.803 153.571 663.089 151.559 666.375 149.556C 671.344 146.524 676.361 143.579 681.428 140.743C 683.672 139.477 685.925 138.22 688.187 136.994C 691.178 135.374 694.179 133.804 697.18 132.263C 709.134 126.639 721.215 121.231 733.563 116.216C 786.199 94.8493 845.86 92.0619 909.014 89.1077C 973.092 86.1142 1038.95 82.9735 1098.08 58.7606C 1110.42 53.706 1122.5 47.8074 1134.17 40.7114C 1150.41 30.8574 1164.88 19.9042 1178 8.1462C 1165.17 9.09823 1149.8 9.30433 1132.57 7.61621C 1116.47 6.03604 1102.3 3.15052 1090.48 0C 1086.22 2.23775 1076.2 5.17235 1068.78 8.0775Z"/>
<path id="path4_fill" fill-rule="evenodd" d="M 2319.59 494.459C 2080.24 -17.0208 1534.31 -6.28945 1095.62 2.31131C 1047.64 3.25386 1002.33 4.14732 957.904 4.38295C 704.623 5.76732 511.932 13.023 373.069 97.9506C 245.278 176.094 144.675 318.694 1.85846 624.099C 0.953814 626.024 0.403158 628.007 0 630L 71.3492 630C 205.414 345.733 299.399 212.598 415.44 141.632C 542.956 63.6556 713.541 56.9399 958.18 55.6046C 1002.98 55.3592 1048.47 54.4755 1096.63 53.5231C 1310.86 49.3111 1553.66 44.5493 1766.47 101.966C 2007.38 166.973 2173.11 302.444 2273.1 516.148C 2279.1 528.97 2294.35 534.479 2307.2 528.509C 2320.04 522.52 2325.57 507.282 2319.59 494.459"/>
</defs>
</svg>
