<svg width="2311" height="1432" viewBox="0 0 2311 1432" version="1.1" xmlns="http://www.w3.org/2000/svg" xmlns:xlink="http://www.w3.org/1999/xlink">
<title>Fill 3</title>
<desc>Created using Figma</desc>
<g id="Canvas" transform="translate(-1508 -383)">
<g id="Fill 3">
<use xlink:href="#path0_fill" transform="translate(1507.99 383)"/>
</g>
</g>
<defs>
<path id="path0_fill" fill-rule="evenodd" d="M 2308.33 848.393C 2300.91 829.807 2292.71 808.827 2283.79 785.935C 2184.23 530.94 1998.93 56.3012 1766.76 4.72954C 1695.87 -11.0126 1626.66 12.5859 1561.11 74.8877C 1508.38 124.988 1478.56 187.241 1449.71 247.434C 1414.83 320.24 1381.87 389.016 1311.34 431.819C 1254.95 466.04 1184.82 469.315 1110.56 472.788C 1045.89 475.799 979.008 478.928 918.244 503.595C 643.736 615.017 411.624 861.948 228.366 1123.38C 156.381 1226.06 81.9471 1332.2 0 1431.38L 81.6127 1431.38C 154.434 1340.31 221.217 1245.13 286.003 1152.7C 464.806 897.64 677.103 656.721 937.578 550.989C 990.209 529.626 1049.82 526.85 1112.96 523.898C 1190.37 520.279 1270.43 516.552 1338.01 475.534C 1421.59 424.816 1459.42 345.859 1495.99 269.502C 1524.08 210.898 1550.6 155.551 1596.49 111.933C 1649.64 61.4309 1701.68 42.7266 1755.61 54.6828C 1961.06 100.311 2146.73 575.941 2235.98 804.502C 2244.95 827.521 2253.21 848.619 2260.64 867.313C 2265.89 880.447 2280.81 886.851 2293.97 881.624C 2307.14 876.396 2313.56 861.517 2308.33 848.393Z"/>
</defs>
</svg>
