<svg width="1884" height="1017" viewBox="0 0 1884 1017" version="1.1" xmlns="http://www.w3.org/2000/svg" xmlns:xlink="http://www.w3.org/1999/xlink">
<title>Fill 1</title>
<desc>Created using Figma</desc>
<g id="Canvas" transform="translate(-1947 -802)">
<g id="Fill 1">
<use xlink:href="#path0_fill" transform="translate(1947 802.381)" fill="#00AEEF"/>
</g>
</g>
<defs>
<path id="path0_fill" fill-rule="evenodd" d="M 1880.62 450.758C 1675.21 91.6345 1395.67 7.70379 1197.32 0.521509C 1027.83 -5.6109 849.969 42.4378 683.011 139.487C 518.196 235.28 391.365 374.187 279.043 541.184C 182.844 684.212 88.9939 843.969 0 1016L 73.462 1016C 157.895 854.683 246.505 704.591 337.2 569.727C 556.74 243.326 872.215 39.9063 1195.47 51.6805C 1461.24 61.2962 1682.75 208.072 1836.09 476.132C 1843.1 488.406 1858.77 492.675 1871.06 485.679C 1883.36 478.663 1887.65 463.033 1880.62 450.758Z"/>
</defs>
</svg>
