<svg width="2322" height="631" viewBox="0 0 2322 631" version="1.1" xmlns="http://www.w3.org/2000/svg" xmlns:xlink="http://www.w3.org/1999/xlink">
<title>Fill 8</title>
<desc>Created using Figma</desc>
<g id="Canvas" transform="translate(-1543 -827)">
<g id="Fill 8">
<use xlink:href="#path0_fill" transform="translate(1543 827.381)" fill="#EC008C"/>
</g>
</g>
<defs>
<path id="path0_fill" fill-rule="evenodd" d="M 2319.59 494.459C 2080.24 -17.0208 1534.31 -6.28945 1095.62 2.31131C 1047.64 3.25386 1002.33 4.14732 957.904 4.38295C 704.622 5.76732 511.932 13.023 373.069 97.9506C 245.278 176.094 144.675 318.694 1.85846 624.099C 0.953814 626.024 0.403158 628.007 0 630L 71.3492 630C 205.414 345.733 299.399 212.598 415.44 141.632C 542.956 63.6556 713.541 56.9399 958.18 55.6046C 1002.98 55.3592 1048.47 54.4755 1096.63 53.5231C 1310.86 49.3111 1553.66 44.5493 1766.47 101.966C 2007.38 166.973 2173.11 302.444 2273.1 516.148C 2279.1 528.97 2294.35 534.479 2307.2 528.509C 2320.04 522.52 2325.57 507.282 2319.59 494.459Z"/>
</defs>
</svg>
