<svg width="1178" height="992" viewBox="0 0 1178 992" version="1.1" xmlns="http://www.w3.org/2000/svg" xmlns:xlink="http://www.w3.org/1999/xlink">
<title>Fill 6</title>
<desc>Created using Figma</desc>
<g id="Canvas" transform="translate(-1703 -827)">
<g id="Fill 6">
<use xlink:href="#path0_fill" transform="translate(1703 827.381)" fill="#FFF200"/>
</g>
</g>
<defs>
<path id="path0_fill" fill-rule="evenodd" d="M 1068.78 8.0775C 1057.09 12.6708 1051.51 14.9674 1043.05 16.8126C 1012.68 23.4571 986.65 26.4114 982.675 26.8628C 982.675 26.8628 958.61 29.4637 933.925 30.4354C 932.971 30.4746 927.569 30.6807 920.23 31.0439C 917.022 31.1911 912.044 31.4365 906.623 31.7702C 892.898 32.6142 893.489 32.9676 885.273 33.3503C 883.315 33.4387 882.637 33.4485 865.222 33.7037C 865.144 33.7037 852.826 33.8902 852.767 33.8902C 823.025 36.2751 808.169 37.4627 788.118 41.2512C 766.66 45.2948 739.486 52.067 709.035 63.9133C 662.184 81.9626 618.678 107.432 577.641 138.937C 575.89 140.282 574.198 141.783 572.466 143.147C 565.737 148.428 559.056 153.816 552.465 159.41C 549.906 161.589 547.348 163.817 544.8 166.045C 538.061 171.924 531.38 177.95 524.769 184.143C 523.726 185.135 522.624 186.038 521.581 187.029C 344.645 354.86 175.008 633.765 50.7965 887.72C 33.6971 922.69 16.7944 957.188 0 991L 72.825 991C 85.9693 964.363 99.1727 937.461 112.524 910.176C 247.44 634.324 420.805 336.507 614.861 185.252C 620.055 181.199 625.28 177.253 630.543 173.416C 631.783 172.523 633.013 171.63 634.252 170.746C 639.054 167.311 643.904 164.004 648.774 160.745C 651.352 159.028 653.939 157.33 656.547 155.661C 659.803 153.571 663.089 151.559 666.375 149.556C 671.344 146.524 676.362 143.579 681.428 140.743C 683.672 139.477 685.925 138.22 688.187 136.994C 691.178 135.374 694.179 133.804 697.18 132.263C 709.134 126.639 721.215 121.231 733.563 116.216C 786.199 94.8493 845.86 92.0619 909.014 89.1077C 973.092 86.1142 1038.95 82.9735 1098.08 58.7606C 1110.42 53.706 1122.5 47.8074 1134.17 40.7114C 1150.41 30.8574 1164.88 19.9042 1178 8.1462C 1165.17 9.09823 1149.8 9.30433 1132.57 7.61621C 1116.47 6.03604 1102.3 3.15052 1090.48 0C 1086.22 2.23775 1076.2 5.17235 1068.78 8.0775Z"/>
</defs>
</svg>
